<svg xmlns="http://www.w3.org/2000/svg" viewBox="0 0 12 12" fill="none">
<path d="M5.83301 0C9.05467 0 11.666 2.61135 11.666 5.83301C11.666 9.05467 9.05467 11.666 5.83301 11.666C2.61135 11.666 0 9.05467 0 5.83301C3.5436e-07 2.61135 2.61135 3.54372e-07 5.83301 0ZM5.83301 2.25C5.51084 2.25 5.25 2.51084 5.25 2.83301V5.83301C5.25 6.05396 5.37464 6.25568 5.57227 6.35449L7.90527 7.52148C8.19343 7.66556 8.5444 7.5489 8.68848 7.26074C8.83255 6.97259 8.71491 6.62162 8.42676 6.47754L6.41602 5.47266V2.83301C6.41602 2.51084 6.15517 2.25 5.83301 2.25Z" fill="#0074EB"/>
</svg>
